<?xml version="1.0" encoding="UTF-8"?>
<svg xmlns="http://www.w3.org/2000/svg" width="256" height="256" viewBox="0 0 256 256">
  <defs>
    <linearGradient id="g" x1="0" y1="0" x2="1" y2="1">
      <stop offset="0" stop-color="#EA4335"/>
      <stop offset="1" stop-color="#FBBC05"/>
    </linearGradient>
  </defs>
  <rect width="256" height="256" rx="32" fill="#ffffff"/>
  <path d="M32 72v112a16 16 0 0 0 16 16h160a16 16 0 0 0 16-16V72l-96 64L32 72z" fill="#34A853"/>
  <path d="M32 72l96 64 96-64v-8a16 16 0 0 0-16-16H48a16 16 0 0 0-16 16v8z" fill="#EA4335"/>
  <path d="M224 72v112a16 16 0 0 1-16 16h-16V88l32-16z" fill="#4285F4"/>
  <path d="M48 200H32a16 16 0 0 1-16-16V72l32 16v112z" fill="#FBBC05"/>
</svg>
